# Created by FreeCAD <https://www.freecad.org>
v -116.112366 -37.618164 0.000000
v -116.112366 -37.618164 25.000000
v -116.112366 37.569324 0.000000
v -116.112366 37.569324 25.000000
v -92.631172 -18.482122 0.000000
v -92.631172 -18.482122 25.000000
v -92.429306 7.136886 0.000000
v -92.429306 7.136886 25.000000
v -73.303841 -22.179117 0.000000
v -73.303841 -22.179117 25.000000
v -73.303841 -13.100420 0.000000
v -73.303841 -13.100420 25.000000
v -73.109741 3.250111 0.000000
v -73.109741 3.250111 25.000000
v -73.109741 12.681258 0.000000
v -73.109741 12.681258 25.000000
v -68.904884 -14.504343 0.000000
v -68.904884 -14.504343 25.000000
v -68.904884 -5.846824 0.000000
v -68.904884 -5.846824 25.000000
v -68.765701 11.080820 0.000000
v -68.765701 11.080820 25.000000
v -68.765701 19.711746 0.000000
v -68.765701 19.711746 25.000000
v -44.987919 -37.618164 0.000000
v -44.987919 -37.618164 25.000000
v -44.987919 -12.585649 0.000000
v -44.987919 -12.585649 25.000000
v -44.987919 -5.846824 0.000000
v -44.987919 -5.846824 25.000000
v -44.987919 13.081367 0.000000
v -44.987919 13.081367 25.000000
v -44.987919 19.883223 0.000000
v -44.987919 19.883223 25.000000
v -44.987919 37.569324 0.000000
v -44.987919 37.569324 25.000000
vn 1.000000 0.000000 0.000000
vn 1.000000 0.000000 0.000000
vn 0.000000 1.000000 0.000000
vn -0.000000 1.000000 0.000000
vn -1.000000 0.000000 -0.000000
vn -1.000000 0.000000 0.000000
vn 0.000000 -1.000000 0.000000
vn -0.000000 -1.000000 -0.000000
vn 1.000000 -0.000000 0.000000
vn 1.000000 0.000000 0.000000
vn -0.320885 0.947118 0.000000
vn -0.320885 0.947118 0.000000
vn 1.000000 0.000000 0.000000
vn 1.000000 -0.000000 0.000000
vn -0.268245 0.963351 0.000000
vn -0.268245 0.963351 0.000000
vn 0.470046 -0.882642 0.000000
vn 0.470046 -0.882642 0.000000
vn -1.000000 0.000000 0.000000
vn -1.000000 -0.000000 -0.000000
vn 0.340369 -0.940292 0.000000
vn 0.340369 -0.940292 0.000000
vn 1.000000 0.000000 0.000000
vn 1.000000 0.000000 0.000000
vn -0.330010 0.943977 0.000000
vn -0.330010 0.943977 0.000000
vn 1.000000 0.000000 0.000000
vn 1.000000 -0.000000 0.000000
vn -0.275848 0.961201 0.000000
vn -0.275848 0.961201 0.000000
vn 0.469259 -0.883060 0.000000
vn 0.469259 -0.883060 0.000000
vn -1.000000 0.000000 0.000000
vn -1.000000 -0.000000 -0.000000
vn 0.347169 -0.937802 0.000000
vn 0.347169 -0.937802 0.000000
vn 0.000000 0.000000 -1.000000
vn 0.000000 0.000000 -1.000000
vn -0.000000 0.000000 -1.000000
vn 0.000000 0.000000 -1.000000
vn -0.000000 0.000000 -1.000000
vn 0.000000 0.000000 -1.000000
vn 0.000000 0.000000 -1.000000
vn 0.000000 0.000000 -1.000000
vn -0.000000 0.000000 -1.000000
vn 0.000000 0.000000 -1.000000
vn 0.000000 -0.000000 -1.000000
vn 0.000000 -0.000000 -1.000000
vn 0.000000 0.000000 -1.000000
vn 0.000000 0.000000 -1.000000
vn 0.000000 0.000000 -1.000000
vn 0.000000 0.000000 -1.000000
vn 0.000000 0.000000 1.000000
vn 0.000000 -0.000000 1.000000
vn 0.000000 -0.000000 1.000000
vn 0.000000 0.000000 1.000000
vn 0.000000 0.000000 1.000000
vn 0.000000 -0.000000 1.000000
vn 0.000000 -0.000000 1.000000
vn 0.000000 -0.000000 1.000000
vn 0.000000 -0.000000 1.000000
vn 0.000000 -0.000000 1.000000
vn 0.000000 0.000000 1.000000
vn 0.000000 0.000000 1.000000
vn -0.000000 0.000000 1.000000
vn 0.000000 -0.000000 1.000000
vn 0.000000 -0.000000 1.000000
vn -0.000000 0.000000 1.000000
f 34//1 33//1 35//1
f 36//2 34//2 35//2
f 36//3 35//3 3//3
f 4//4 36//4 3//4
f 4//5 3//5 1//5
f 2//6 4//6 1//6
f 2//7 1//7 25//7
f 26//8 2//8 25//8
f 26//9 25//9 28//9
f 28//10 25//10 27//10
f 10//11 27//11 9//11
f 28//12 27//12 10//12
f 12//13 9//13 11//13
f 10//14 9//14 12//14
f 12//15 5//15 6//15
f 12//16 11//16 5//16
f 20//17 5//17 19//17
f 6//18 5//18 20//18
f 18//19 19//19 17//19
f 20//20 19//20 18//20
f 30//21 18//21 29//21
f 18//22 17//22 29//22
f 32//23 30//23 29//23
f 32//24 29//24 31//24
f 14//25 32//25 13//25
f 32//26 31//26 13//26
f 16//27 13//27 15//27
f 14//28 13//28 16//28
f 8//29 15//29 7//29
f 16//30 15//30 8//30
f 24//31 7//31 23//31
f 8//32 7//32 24//32
f 22//33 23//33 21//33
f 24//34 23//34 22//34
f 34//35 21//35 33//35
f 22//36 21//36 34//36
f 1//37 5//37 9//37
f 9//38 5//38 11//38
f 5//39 1//39 7//39
f 1//40 9//40 25//40
f 7//41 1//41 3//41
f 13//42 7//42 15//42
f 7//43 3//43 23//43
f 23//44 3//44 35//44
f 33//45 23//45 35//45
f 25//46 9//46 27//46
f 13//47 19//47 5//47
f 7//48 13//48 5//48
f 19//49 29//49 17//49
f 19//50 13//50 31//50
f 29//51 19//51 31//51
f 23//52 33//52 21//52
f 2//53 10//53 6//53
f 10//54 12//54 6//54
f 6//55 8//55 2//55
f 2//56 26//56 10//56
f 8//57 4//57 2//57
f 14//58 16//58 8//58
f 8//59 24//59 4//59
f 24//60 36//60 4//60
f 34//61 36//61 24//61
f 26//62 28//62 10//62
f 14//63 6//63 20//63
f 8//64 6//64 14//64
f 20//65 18//65 30//65
f 20//66 32//66 14//66
f 30//67 32//67 20//67
f 24//68 22//68 34//68
